STARTFONT 2.1
COMMENT 
COMMENT Copyright (C) 2012, 2013 Uwe Waldmann
COMMENT 
COMMENT Permission is hereby granted, free of charge, to any person obtaining
COMMENT a copy of this font software and associated files (the "Software"),
COMMENT to deal in the Software without restriction, including without
COMMENT limitation the rights to use, copy, modify, merge, publish,
COMMENT distribute, embed, sublicense, and/or sell copies of the Software,
COMMENT and to permit persons to whom the Software is furnished to do so,
COMMENT subject to the following conditions:
COMMENT 
COMMENT (1) The above copyright notice, this permission notice, and the
COMMENT     disclaimer below shall be included in all copies or substantial
COMMENT     portions of the Software.
COMMENT 
COMMENT (2) If the design of any glyphs in the fonts that are contained in the
COMMENT     Software or generated during the installation process is modified
COMMENT     or if additional glyphs are added to the fonts, the fonts
COMMENT     must be renamed. The new names may not contain the word "UW",
COMMENT     irrespective of capitalisation; the new names may contain the word
COMMENT     "ttyp0", irrespective of capitalisation, only if preceded by a
COMMENT     foundry name different from "UW".
COMMENT 
COMMENT THE SOFTWARE IS PROVIDED "AS IS", WITHOUT WARRANTY OF ANY KIND, EXPRESS
COMMENT OR IMPLIED, INCLUDING BUT NOT LIMITED TO THE WARRANTIES OF
COMMENT MERCHANTABILITY, FITNESS FOR A PARTICULAR PURPOSE AND NONINFRINGEMENT.
COMMENT IN NO EVENT SHALL THE AUTHORS OR COPYRIGHT HOLDERS BE LIABLE FOR ANY
COMMENT CLAIM, DAMAGES OR OTHER LIABILITY, WHETHER IN AN ACTION OF CONTRACT,
COMMENT TORT OR OTHERWISE, ARISING FROM, OUT OF OR IN CONNECTION WITH THE
COMMENT SOFTWARE OR THE USE OR OTHER DEALINGS IN THE SOFTWARE.
COMMENT 
FONT -UW-Ttyp0-Bold-R-Normal--11-100-75-75-C-60-UW-Fontspecific
SIZE 11 75 75
FONTBOUNDINGBOX 6 11 0 -2
STARTPROPERTIES 19
FONTNAME_REGISTRY ""
FOUNDRY "UW"
FAMILY_NAME "Ttyp0"

STARTCHAR LtCapALdot
ENCODING 735
SWIDTH 840 0
DWIDTH 6 0
BBX 6 11 0 -2
BITMAP
00
20
60
70
50
f8
d8
98
98
00
60
ENDCHAR
STARTCHAR LtCapBLdot
ENCODING 736
SWIDTH 840 0
DWIDTH 6 0
BBX 6 11 0 -2
BITMAP
00
f0
d8
d8
f0
d8
d8
d8
f0
00
60
ENDCHAR
STARTCHAR LtCapCLdot
ENCODING 737
SWIDTH 840 0
DWIDTH 6 0
BBX 6 11 0 -2
BITMAP
00
78
c8
c0
c0
c0
c0
c8
78
00
30
ENDCHAR
STARTCHAR LtCapDLdot
ENCODING 738
SWIDTH 840 0
DWIDTH 6 0
BBX 6 11 0 -2
BITMAP
00
e0
d0
d8
d8
d8
d8
d0
e0
00
60
ENDCHAR
STARTCHAR LtCapELdot
ENCODING 739
SWIDTH 840 0
DWIDTH 6 0
BBX 6 11 0 -2
BITMAP
00
f8
c8
c0
f0
c0
c0
c8
f8
00
60
ENDCHAR
STARTCHAR LtCapHLdot
ENCODING 740
SWIDTH 840 0
DWIDTH 6 0
BBX 6 11 0 -2
BITMAP
00
d8
d8
d8
f8
d8
d8
d8
d8
00
60
ENDCHAR
STARTCHAR LtCapILdot
ENCODING 741
SWIDTH 840 0
DWIDTH 6 0
BBX 6 11 0 -2
BITMAP
00
78
30
30
30
30
30
30
78
00
30
ENDCHAR
STARTCHAR LtCapKLdot
ENCODING 742
SWIDTH 840 0
DWIDTH 6 0
BBX 6 11 0 -2
BITMAP
00
c8
d8
d0
e0
f0
d8
d8
d8
00
60
ENDCHAR
STARTCHAR LtCapLLdot
ENCODING 743
SWIDTH 840 0
DWIDTH 6 0
BBX 6 11 0 -2
BITMAP
00
c0
c0
c0
c0
c0
c0
c8
f8
00
60
ENDCHAR
STARTCHAR LtCapMLdot
ENCODING 744
SWIDTH 840 0
DWIDTH 6 0
BBX 6 11 0 -2
BITMAP
00
88
d8
f8
f8
a8
a8
88
88
00
60
ENDCHAR
STARTCHAR LtCapNLdot
ENCODING 745
SWIDTH 840 0
DWIDTH 6 0
BBX 6 11 0 -2
BITMAP
00
c8
c8
e8
e8
b8
b8
98
98
00
60
ENDCHAR
STARTCHAR LtCapOLdot
ENCODING 746
SWIDTH 840 0
DWIDTH 6 0
BBX 6 11 0 -2
BITMAP
00
70
d8
d8
d8
d8
d8
d8
70
00
60
ENDCHAR
STARTCHAR LtCapPLdot
ENCODING 747
SWIDTH 840 0
DWIDTH 6 0
BBX 6 11 0 -2
BITMAP
00
f0
d8
d8
d8
f0
c0
c0
c0
00
c0
ENDCHAR
STARTCHAR LtCapQLdot
ENCODING 748
SWIDTH 840 0
DWIDTH 6 0
BBX 6 11 0 -2
BITMAP
00
70
d8
d8
d8
d8
d8
d8
70
18
68
ENDCHAR
STARTCHAR LtCapRLdot
ENCODING 749
SWIDTH 840 0
DWIDTH 6 0
BBX 6 11 0 -2
BITMAP
00
f0
d8
d8
f0
d0
d8
d8
d8
00
60
ENDCHAR
STARTCHAR LtCapSLdot
ENCODING 750
SWIDTH 840 0
DWIDTH 6 0
BBX 6 11 0 -2
BITMAP
00
78
c8
c0
f0
78
18
98
f0
00
60
ENDCHAR
STARTCHAR LtCapTLdot
ENCODING 751
SWIDTH 840 0
DWIDTH 6 0
BBX 6 11 0 -2
BITMAP
00
fc
b0
30
30
30
30
30
30
00
30
ENDCHAR
STARTCHAR LtCapULdot
ENCODING 752
SWIDTH 840 0
DWIDTH 6 0
BBX 6 11 0 -2
BITMAP
00
d8
d8
d8
d8
d8
d8
d8
70
00
60
ENDCHAR
STARTCHAR LtCapVLdot
ENCODING 753
SWIDTH 840 0
DWIDTH 6 0
BBX 6 11 0 -2
BITMAP
00
c8
c8
c8
d8
58
70
30
20
00
60
ENDCHAR
STARTCHAR LtCapWLdot
ENCODING 754
SWIDTH 840 0
DWIDTH 6 0
BBX 6 11 0 -2
BITMAP
00
88
88
a8
a8
f8
f8
50
50
00
60
ENDCHAR
STARTCHAR LtCapYLdot
ENCODING 755
SWIDTH 840 0
DWIDTH 6 0
BBX 6 11 0 -2
BITMAP
00
c4
c8
68
70
30
30
30
30
00
30
ENDCHAR
STARTCHAR LtCapZLdot
ENCODING 756
SWIDTH 840 0
DWIDTH 6 0
BBX 6 11 0 -2
BITMAP
00
f8
98
30
30
60
60
c8
f8
00
60
ENDCHAR
STARTCHAR LtSmlALdot
ENCODING 757
SWIDTH 840 0
DWIDTH 6 0
BBX 6 11 0 -2
BITMAP
00
00
00
70
18
78
d8
d8
78
00
30
ENDCHAR
STARTCHAR LtSmlBLdot
ENCODING 758
SWIDTH 840 0
DWIDTH 6 0
BBX 6 11 0 -2
BITMAP
00
c0
c0
f0
d8
d8
d8
d8
f0
00
60
ENDCHAR
STARTCHAR LtSmlCLdot
ENCODING 759
SWIDTH 840 0
DWIDTH 6 0
BBX 6 11 0 -2
BITMAP
00
00
00
78
c8
c0
c0
c8
78
00
30
ENDCHAR
STARTCHAR LtSmlDLdot
ENCODING 760
SWIDTH 840 0
DWIDTH 6 0
BBX 6 11 0 -2
BITMAP
00
18
18
78
d8
d8
d8
d8
78
00
30
ENDCHAR
STARTCHAR LtSmlELdot
ENCODING 761
SWIDTH 840 0
DWIDTH 6 0
BBX 6 11 0 -2
BITMAP
00
00
00
70
d8
f8
c0
c8
78
00
30
ENDCHAR
STARTCHAR LtSmlHLdot
ENCODING 762
SWIDTH 840 0
DWIDTH 6 0
BBX 6 11 0 -2
BITMAP
00
c0
c0
f0
d8
d8
d8
d8
d8
00
60
ENDCHAR
STARTCHAR LtSmlILdot
ENCODING 763
SWIDTH 840 0
DWIDTH 6 0
BBX 6 11 0 -2
BITMAP
30
30
00
70
30
30
30
30
78
00
30
ENDCHAR
STARTCHAR LtSmlKLdot
ENCODING 764
SWIDTH 840 0
DWIDTH 6 0
BBX 6 11 0 -2
BITMAP
00
c0
c0
d8
d0
e0
f0
d8
d8
00
60
ENDCHAR
STARTCHAR LtSmlLLdot
ENCODING 765
SWIDTH 840 0
DWIDTH 6 0
BBX 6 11 0 -2
BITMAP
00
70
30
30
30
30
30
30
78
00
30
ENDCHAR
STARTCHAR LtSmlMLdot
ENCODING 766
SWIDTH 840 0
DWIDTH 6 0
BBX 6 11 0 -2
BITMAP
00
00
00
f0
f8
a8
a8
a8
a8
00
60
ENDCHAR
STARTCHAR LtSmlNLdot
ENCODING 767
SWIDTH 840 0
DWIDTH 6 0
BBX 6 11 0 -2
BITMAP
00
00
00
f0
d8
d8
d8
d8
d8
00
60
ENDCHAR
STARTCHAR LtSmlOLdot
ENCODING 768
SWIDTH 840 0
DWIDTH 6 0
BBX 6 11 0 -2
BITMAP
00
00
00
70
d8
d8
d8
d8
70
00
60
ENDCHAR
STARTCHAR LtSmlPLdot
ENCODING 769
SWIDTH 840 0
DWIDTH 6 0
BBX 6 11 0 -2
BITMAP
00
00
00
f0
d8
d8
d8
d8
f0
c0
d8
ENDCHAR
STARTCHAR LtSmlQLdot
ENCODING 770
SWIDTH 840 0
DWIDTH 6 0
BBX 6 11 0 -2
BITMAP
00
00
00
78
d8
d8
d8
d8
78
18
d8
ENDCHAR
STARTCHAR LtSmlRLdot
ENCODING 771
SWIDTH 840 0
DWIDTH 6 0
BBX 6 11 0 -2
BITMAP
00
00
00
f8
68
60
60
60
60
00
60
ENDCHAR
STARTCHAR LtSmlSLdot
ENCODING 772
SWIDTH 840 0
DWIDTH 6 0
BBX 6 11 0 -2
BITMAP
00
00
00
78
c0
f0
78
18
f0
00
60
ENDCHAR
STARTCHAR LtSmlTLdot
ENCODING 773
SWIDTH 840 0
DWIDTH 6 0
BBX 6 11 0 -2
BITMAP
00
20
60
f8
60
60
60
68
38
00
30
ENDCHAR
STARTCHAR LtSmlULdot
ENCODING 774
SWIDTH 840 0
DWIDTH 6 0
BBX 6 11 0 -2
BITMAP
00
00
00
d8
d8
d8
d8
d8
78
00
30
ENDCHAR
STARTCHAR LtSmlVLdot
ENCODING 775
SWIDTH 840 0
DWIDTH 6 0
BBX 6 11 0 -2
BITMAP
00
00
00
c8
c8
70
70
30
20
00
60
ENDCHAR
STARTCHAR LtSmlWLdot
ENCODING 776
SWIDTH 840 0
DWIDTH 6 0
BBX 6 11 0 -2
BITMAP
00
00
00
88
a8
a8
f8
70
50
00
60
ENDCHAR
STARTCHAR LtSmlYLdot
ENCODING 777
SWIDTH 840 0
DWIDTH 6 0
BBX 6 11 0 -2
BITMAP
00
00
00
c8
c8
68
70
30
10
a8
e8
ENDCHAR
STARTCHAR LtSmlZLdot
ENCODING 778
SWIDTH 840 0
DWIDTH 6 0
BBX 6 11 0 -2
BITMAP
00
00
00
f8
b8
30
60
e8
f8
00
60
ENDCHAR
STARTCHAR LtCapOHornLdot
ENCODING 779
SWIDTH 840 0
DWIDTH 6 0
BBX 6 11 0 -2
BITMAP
0c
7c
d8
d8
d8
d8
d8
d8
70
00
60
ENDCHAR
STARTCHAR LtCapUHornLdot
ENCODING 780
SWIDTH 840 0
DWIDTH 6 0
BBX 6 11 0 -2
BITMAP
0c
dc
d8
d8
d8
d8
d8
d8
70
00
60
ENDCHAR
STARTCHAR LtSmlOHornLdot
ENCODING 781
SWIDTH 840 0
DWIDTH 6 0
BBX 6 11 0 -2
BITMAP
00
00
0c
7c
d8
d8
d8
d8
70
00
60
ENDCHAR
STARTCHAR LtSmlUHornLdot
ENCODING 782
SWIDTH 840 0
DWIDTH 6 0
BBX 6 11 0 -2
BITMAP
00
00
0c
dc
d8
d8
d8
d8
78
00
30
ENDCHAR
STARTCHAR LtCapSDotLdot
ENCODING 783
SWIDTH 840 0
DWIDTH 6 0
BBX 6 11 0 -2
BITMAP
30
00
78
c8
e0
70
38
98
f0
00
60
ENDCHAR
STARTCHAR LtSmlSDotLdot
ENCODING 784
SWIDTH 840 0
DWIDTH 6 0
BBX 6 11 0 -2
BITMAP
30
30
00
78
c0
f0
78
18
f0
00
60
ENDCHAR
STARTCHAR LtCapLMacronLdot
ENCODING 785
SWIDTH 840 0
DWIDTH 6 0
BBX 6 11 0 -2
BITMAP
f8
00
c0
c0
c0
c0
c0
c8
f8
00
60
ENDCHAR
STARTCHAR LtCapRMacronLdot
ENCODING 786
SWIDTH 840 0
DWIDTH 6 0
BBX 6 11 0 -2
BITMAP
f8
00
f0
d8
d8
f0
d0
d8
d8
00
60
ENDCHAR
STARTCHAR LtSmlLMacronLdot
ENCODING 787
SWIDTH 840 0
DWIDTH 6 0
BBX 6 11 0 -2
BITMAP
f8
00
70
30
30
30
30
30
78
00
30
ENDCHAR
STARTCHAR LtSmlRMacronLdot
ENCODING 788
SWIDTH 840 0
DWIDTH 6 0
BBX 6 11 0 -2
BITMAP
00
78
00
f8
68
60
60
60
60
00
60
ENDCHAR
STARTCHAR LtCapEAcuteLdot
ENCODING 789
SWIDTH 840 0
DWIDTH 6 0
BBX 6 11 0 -2
BITMAP
30
60
f8
c8
c0
f0
c0
c8
f8
00
60
ENDCHAR
STARTCHAR LtCapOAcuteLdot
ENCODING 790
SWIDTH 840 0
DWIDTH 6 0
BBX 6 11 0 -2
BITMAP
18
30
70
d8
d8
d8
d8
d8
70
00
60
ENDCHAR
STARTCHAR LtCapRAcuteLdot
ENCODING 791
SWIDTH 840 0
DWIDTH 6 0
BBX 6 11 0 -2
BITMAP
30
60
f0
d8
d8
f0
d0
d8
d8
00
60
ENDCHAR
STARTCHAR LtSmlEAcuteLdot
ENCODING 792
SWIDTH 840 0
DWIDTH 6 0
BBX 6 11 0 -2
BITMAP
18
30
00
70
d8
f8
c0
c8
78
00
30
ENDCHAR
STARTCHAR LtSmlOAcuteLdot
ENCODING 793
SWIDTH 840 0
DWIDTH 6 0
BBX 6 11 0 -2
BITMAP
18
30
00
70
d8
d8
d8
d8
70
00
60
ENDCHAR
STARTCHAR LtSmlRAcuteLdot
ENCODING 794
SWIDTH 840 0
DWIDTH 6 0
BBX 6 11 0 -2
BITMAP
18
30
00
f8
68
60
60
60
60
00
60
ENDCHAR
STARTCHAR LtSmlRMacronAcuteLdot
ENCODING 795
SWIDTH 840 0
DWIDTH 6 0
BBX 6 11 0 -2
BITMAP
30
f8
00
f8
68
60
60
60
60
00
60
ENDCHAR
STARTCHAR LtCapEGraveLdot
ENCODING 796
SWIDTH 840 0
DWIDTH 6 0
BBX 6 11 0 -2
BITMAP
60
30
f8
c8
c0
f0
c0
c8
f8
00
60
ENDCHAR
STARTCHAR LtCapOGraveLdot
ENCODING 797
SWIDTH 840 0
DWIDTH 6 0
BBX 6 11 0 -2
BITMAP
60
30
70
d8
d8
d8
d8
d8
70
00
60
ENDCHAR
STARTCHAR LtCapRGraveLdot
ENCODING 798
SWIDTH 840 0
DWIDTH 6 0
BBX 6 11 0 -2
BITMAP
c0
60
f0
d8
d8
f0
d0
d8
d8
00
60
ENDCHAR
STARTCHAR LtSmlEGraveLdot
ENCODING 799
SWIDTH 840 0
DWIDTH 6 0
BBX 6 11 0 -2
BITMAP
60
30
00
70
d8
f8
c0
c8
78
00
30
ENDCHAR
STARTCHAR LtSmlOGraveLdot
ENCODING 800
SWIDTH 840 0
DWIDTH 6 0
BBX 6 11 0 -2
BITMAP
c0
60
00
70
d8
d8
d8
d8
70
00
60
ENDCHAR
STARTCHAR LtSmlRGraveLdot
ENCODING 801
SWIDTH 840 0
DWIDTH 6 0
BBX 6 11 0 -2
BITMAP
60
30
00
f8
68
60
60
60
60
00
60
ENDCHAR
STARTCHAR LtCapACircumLdot
ENCODING 802
SWIDTH 840 0
DWIDTH 6 0
BBX 6 11 0 -2
BITMAP
30
58
20
70
50
f8
d8
98
98
00
60
ENDCHAR
STARTCHAR LtCapECircumLdot
ENCODING 803
SWIDTH 840 0
DWIDTH 6 0
BBX 6 11 0 -2
BITMAP
30
58
f8
c8
c0
f0
c0
c8
f8
00
60
ENDCHAR
STARTCHAR LtCapOCircumLdot
ENCODING 804
SWIDTH 840 0
DWIDTH 6 0
BBX 6 11 0 -2
BITMAP
30
58
70
d8
d8
d8
d8
d8
70
00
60
ENDCHAR
STARTCHAR LtSmlACircumLdot
ENCODING 805
SWIDTH 840 0
DWIDTH 6 0
BBX 6 11 0 -2
BITMAP
30
58
00
70
18
78
d8
d8
78
00
30
ENDCHAR
STARTCHAR LtSmlECircumLdot
ENCODING 806
SWIDTH 840 0
DWIDTH 6 0
BBX 6 11 0 -2
BITMAP
30
58
00
70
d8
f8
c0
c8
78
00
30
ENDCHAR
STARTCHAR LtSmlOCircumLdot
ENCODING 807
SWIDTH 840 0
DWIDTH 6 0
BBX 6 11 0 -2
BITMAP
30
58
00
70
d8
d8
d8
d8
70
00
60
ENDCHAR
STARTCHAR LtCapCCaronLdot
ENCODING 808
SWIDTH 840 0
DWIDTH 6 0
BBX 6 11 0 -2
BITMAP
68
30
78
c8
c0
c0
c0
c8
78
00
30
ENDCHAR
STARTCHAR LtSmlCCaronLdot
ENCODING 809
SWIDTH 840 0
DWIDTH 6 0
BBX 6 11 0 -2
BITMAP
68
30
00
78
c8
c0
c0
c8
78
00
30
ENDCHAR
STARTCHAR LtCapABreveLdot
ENCODING 810
SWIDTH 840 0
DWIDTH 6 0
BBX 6 11 0 -2
BITMAP
d0
60
20
70
50
f8
d8
98
98
00
60
ENDCHAR
STARTCHAR LtSmlABreveLdot
ENCODING 811
SWIDTH 840 0
DWIDTH 6 0
BBX 6 11 0 -2
BITMAP
68
30
00
70
18
78
d8
d8
78
00
30
ENDCHAR
STARTCHAR LtSmlRLvline
ENCODING 815
SWIDTH 840 0
DWIDTH 6 0
BBX 6 11 0 -2
BITMAP
00
00
00
f8
68
60
60
60
00
60
60
ENDCHAR
STARTCHAR LtCapALring
ENCODING 817
SWIDTH 840 0
DWIDTH 6 0
BBX 6 11 0 -2
BITMAP
00
20
60
70
50
f8
d8
98
a8
50
20
ENDCHAR
STARTCHAR LtCapRLring
ENCODING 818
SWIDTH 840 0
DWIDTH 6 0
BBX 6 11 0 -2
BITMAP
00
f0
d8
d8
f0
d0
d8
d8
a8
50
20
ENDCHAR
STARTCHAR LtSmlALring
ENCODING 819
SWIDTH 840 0
DWIDTH 6 0
BBX 6 11 0 -2
BITMAP
00
00
00
70
18
78
d8
d8
78
50
20
ENDCHAR
STARTCHAR LtSmlLLring
ENCODING 820
SWIDTH 840 0
DWIDTH 6 0
BBX 6 11 0 -2
BITMAP
00
70
30
30
30
30
30
30
78
50
20
ENDCHAR
STARTCHAR LtSmlRLring
ENCODING 821
SWIDTH 840 0
DWIDTH 6 0
BBX 6 11 0 -2
BITMAP
00
00
00
f8
68
60
60
60
60
50
20
ENDCHAR
STARTCHAR LtSmlLMacronLring
ENCODING 822
SWIDTH 840 0
DWIDTH 6 0
BBX 6 11 0 -2
BITMAP
f8
00
70
30
30
30
30
30
78
50
20
ENDCHAR
STARTCHAR LtSmlRMacronLring
ENCODING 823
SWIDTH 840 0
DWIDTH 6 0
BBX 6 11 0 -2
BITMAP
00
78
00
f8
68
60
60
60
60
50
20
ENDCHAR
STARTCHAR LtSmlRAcuteLring
ENCODING 824
SWIDTH 840 0
DWIDTH 6 0
BBX 6 11 0 -2
BITMAP
18
30
00
f8
68
60
60
60
60
50
20
ENDCHAR
STARTCHAR LtSmlRMacronAcuteLring
ENCODING 825
SWIDTH 840 0
DWIDTH 6 0
BBX 6 11 0 -2
BITMAP
30
f8
00
f8
68
60
60
60
60
50
20
ENDCHAR
STARTCHAR LtSmlRGraveLring
ENCODING 826
SWIDTH 840 0
DWIDTH 6 0
BBX 6 11 0 -2
BITMAP
60
30
00
f8
68
60
60
60
60
50
20
ENDCHAR
STARTCHAR LtCapULdrss
ENCODING 827
SWIDTH 840 0
DWIDTH 6 0
BBX 6 11 0 -2
BITMAP
00
d8
d8
d8
d8
d8
d8
d8
70
00
d8
ENDCHAR
STARTCHAR LtSmlULdrss
ENCODING 828
SWIDTH 840 0
DWIDTH 6 0
BBX 6 11 0 -2
BITMAP
00
00
00
d8
d8
d8
d8
d8
78
00
d8
ENDCHAR
STARTCHAR LtCapBLmacron
ENCODING 829
SWIDTH 840 0
DWIDTH 6 0
BBX 6 11 0 -2
BITMAP
00
f0
d8
d8
f0
d8
d8
d8
f0
00
f8
ENDCHAR
STARTCHAR LtCapDLmacron
ENCODING 830
SWIDTH 840 0
DWIDTH 6 0
BBX 6 11 0 -2
BITMAP
00
e0
d0
d8
d8
d8
d8
d0
e0
00
f8
ENDCHAR
STARTCHAR LtCapELmacron
ENCODING 831
SWIDTH 840 0
DWIDTH 6 0
BBX 6 11 0 -2
BITMAP
00
f8
c8
c0
f0
c0
c0
c8
f8
00
f8
ENDCHAR
STARTCHAR LtCapHLmacron
ENCODING 832
SWIDTH 840 0
DWIDTH 6 0
BBX 6 11 0 -2
BITMAP
00
d8
d8
d8
f8
d8
d8
d8
d8
00
f8
ENDCHAR
STARTCHAR LtCapKLmacron
ENCODING 833
SWIDTH 840 0
DWIDTH 6 0
BBX 6 11 0 -2
BITMAP
00
c8
d8
d0
e0
f0
d8
d8
d8
00
f8
ENDCHAR
STARTCHAR LtCapLLmacron
ENCODING 834
SWIDTH 840 0
DWIDTH 6 0
BBX 6 11 0 -2
BITMAP
00
c0
c0
c0
c0
c0
c0
c8
f8
00
f8
ENDCHAR
STARTCHAR LtCapNLmacron
ENCODING 835
SWIDTH 840 0
DWIDTH 6 0
BBX 6 11 0 -2
BITMAP
00
c8
c8
e8
e8
b8
b8
98
98
00
f8
ENDCHAR
STARTCHAR LtCapOLmacron
ENCODING 836
SWIDTH 840 0
DWIDTH 6 0
BBX 6 11 0 -2
BITMAP
00
70
d8
d8
d8
d8
d8
d8
70
00
f8
ENDCHAR
STARTCHAR LtCapRLmacron
ENCODING 837
SWIDTH 840 0
DWIDTH 6 0
BBX 6 11 0 -2
BITMAP
00
f0
d8
d8
f0
d0
d8
d8
d8
00
f8
ENDCHAR
STARTCHAR LtCapTLmacron
ENCODING 838
SWIDTH 840 0
DWIDTH 6 0
BBX 6 11 0 -2
BITMAP
00
fc
b0
30
30
30
30
30
30
00
f8
ENDCHAR
STARTCHAR LtCapZLmacron
ENCODING 839
SWIDTH 840 0
DWIDTH 6 0
BBX 6 11 0 -2
BITMAP
00
f8
98
30
30
60
60
c8
f8
00
f8
ENDCHAR
STARTCHAR LtSmlBLmacron
ENCODING 840
SWIDTH 840 0
DWIDTH 6 0
BBX 6 11 0 -2
BITMAP
00
c0
c0
f0
d8
d8
d8
d8
f0
00
f8
ENDCHAR
STARTCHAR LtSmlDLmacron
ENCODING 841
SWIDTH 840 0
DWIDTH 6 0
BBX 6 11 0 -2
BITMAP
00
18
18
78
d8
d8
d8
d8
78
00
f8
ENDCHAR
STARTCHAR LtSmlELmacron
ENCODING 842
SWIDTH 840 0
DWIDTH 6 0
BBX 6 11 0 -2
BITMAP
00
00
00
70
d8
f8
c0
c8
78
00
f8
ENDCHAR
STARTCHAR LtSmlHLmacron
ENCODING 843
SWIDTH 840 0
DWIDTH 6 0
BBX 6 11 0 -2
BITMAP
00
c0
c0
f0
d8
d8
d8
d8
d8
00
f8
ENDCHAR
STARTCHAR LtSmlKLmacron
ENCODING 844
SWIDTH 840 0
DWIDTH 6 0
BBX 6 11 0 -2
BITMAP
00
c0
c0
d8
d0
e0
f0
d8
d8
00
f8
ENDCHAR
STARTCHAR LtSmlLLmacron
ENCODING 845
SWIDTH 840 0
DWIDTH 6 0
BBX 6 11 0 -2
BITMAP
00
70
30
30
30
30
30
30
78
00
78
ENDCHAR
STARTCHAR LtSmlNLmacron
ENCODING 846
SWIDTH 840 0
DWIDTH 6 0
BBX 6 11 0 -2
BITMAP
00
00
00
f0
d8
d8
d8
d8
d8
00
f8
ENDCHAR
STARTCHAR LtSmlOLmacron
ENCODING 847
SWIDTH 840 0
DWIDTH 6 0
BBX 6 11 0 -2
BITMAP
00
00
00
70
d8
d8
d8
d8
70
00
f8
ENDCHAR
STARTCHAR LtSmlRLmacron
ENCODING 848
SWIDTH 840 0
DWIDTH 6 0
BBX 6 11 0 -2
BITMAP
00
00
00
f8
68
60
60
60
60
00
78
ENDCHAR
STARTCHAR LtSmlTLmacron
ENCODING 849
SWIDTH 840 0
DWIDTH 6 0
BBX 6 11 0 -2
BITMAP
00
20
60
f8
60
60
60
68
38
00
f8
ENDCHAR
STARTCHAR LtSmlZLmacron
ENCODING 850
SWIDTH 840 0
DWIDTH 6 0
BBX 6 11 0 -2
BITMAP
00
00
00
f8
b8
30
60
e8
f8
00
f8
ENDCHAR
STARTCHAR LtCapGHLmacron
ENCODING 851
SWIDTH 840 0
DWIDTH 6 0
BBX 6 11 0 -2
BITMAP
00
68
e8
a8
b8
f8
e8
e8
68
00
f8
ENDCHAR
STARTCHAR LtCapKHLmacron
ENCODING 852
SWIDTH 840 0
DWIDTH 6 0
BBX 6 11 0 -2
BITMAP
00
a8
e8
e8
b8
f8
e8
e8
a8
00
f8
ENDCHAR
STARTCHAR LtMixGHLmacron
ENCODING 853
SWIDTH 840 0
DWIDTH 6 0
BBX 6 11 0 -2
BITMAP
00
60
e0
b0
b8
e8
e8
e8
68
00
f8
ENDCHAR
STARTCHAR LtMixKHLmacron
ENCODING 854
SWIDTH 840 0
DWIDTH 6 0
BBX 6 11 0 -2
BITMAP
00
a0
e0
f0
b8
e8
e8
e8
a8
00
f8
ENDCHAR
STARTCHAR LtSmlGHLmacron
ENCODING 855
SWIDTH 840 0
DWIDTH 6 0
BBX 6 11 0 -2
BITMAP
00
20
20
70
f8
a8
a8
e8
68
c0
f8
ENDCHAR
STARTCHAR LtSmlKHLmacron
ENCODING 856
SWIDTH 840 0
DWIDTH 6 0
BBX 6 11 0 -2
BITMAP
00
a0
a0
f0
f8
a8
e8
e8
a8
00
f8
ENDCHAR
STARTCHAR LtCapDLcircum
ENCODING 857
SWIDTH 840 0
DWIDTH 6 0
BBX 6 11 0 -2
BITMAP
00
e0
d0
d8
d8
d8
d8
d0
e0
60
b0
ENDCHAR
STARTCHAR LtCapELcircum
ENCODING 858
SWIDTH 840 0
DWIDTH 6 0
BBX 6 11 0 -2
BITMAP
00
f8
c8
c0
f0
c0
c0
c8
f8
30
58
ENDCHAR
STARTCHAR LtCapLLcircum
ENCODING 859
SWIDTH 840 0
DWIDTH 6 0
BBX 6 11 0 -2
BITMAP
00
c0
c0
c0
c0
c0
c0
c8
f8
30
58
ENDCHAR
STARTCHAR LtCapNLcircum
ENCODING 860
SWIDTH 840 0
DWIDTH 6 0
BBX 6 11 0 -2
BITMAP
00
c8
c8
e8
e8
b8
b8
98
98
60
b0
ENDCHAR
STARTCHAR LtCapTLcircum
ENCODING 861
SWIDTH 840 0
DWIDTH 6 0
BBX 6 11 0 -2
BITMAP
00
fc
b0
30
30
30
30
30
30
30
58
ENDCHAR
STARTCHAR LtCapULcircum
ENCODING 862
SWIDTH 840 0
DWIDTH 6 0
BBX 6 11 0 -2
BITMAP
00
d8
d8
d8
d8
d8
d8
d8
70
30
58
ENDCHAR
STARTCHAR LtSmlDLcircum
ENCODING 863
SWIDTH 840 0
DWIDTH 6 0
BBX 6 11 0 -2
BITMAP
00
18
18
78
d8
d8
d8
d8
78
30
58
ENDCHAR
STARTCHAR LtSmlELcircum
ENCODING 864
SWIDTH 840 0
DWIDTH 6 0
BBX 6 11 0 -2
BITMAP
00
00
00
70
d8
f8
c0
c8
78
30
58
ENDCHAR
STARTCHAR LtSmlLLcircum
ENCODING 865
SWIDTH 840 0
DWIDTH 6 0
BBX 6 11 0 -2
BITMAP
00
70
30
30
30
30
30
30
78
30
58
ENDCHAR
STARTCHAR LtSmlNLcircum
ENCODING 866
SWIDTH 840 0
DWIDTH 6 0
BBX 6 11 0 -2
BITMAP
00
00
00
f0
d8
d8
d8
d8
d8
30
58
ENDCHAR
STARTCHAR LtSmlTLcircum
ENCODING 867
SWIDTH 840 0
DWIDTH 6 0
BBX 6 11 0 -2
BITMAP
00
20
60
f8
60
60
60
68
38
30
58
ENDCHAR
STARTCHAR LtSmlULcircum
ENCODING 868
SWIDTH 840 0
DWIDTH 6 0
BBX 6 11 0 -2
BITMAP
00
00
00
d8
d8
d8
d8
d8
78
30
58
ENDCHAR
STARTCHAR LtCapHLbreve
ENCODING 869
SWIDTH 840 0
DWIDTH 6 0
BBX 6 11 0 -2
BITMAP
00
d8
d8
d8
f8
d8
d8
d8
88
d0
60
ENDCHAR
STARTCHAR LtSmlHLbreve
ENCODING 870
SWIDTH 840 0
DWIDTH 6 0
BBX 6 11 0 -2
BITMAP
00
c0
c0
f0
d8
d8
d8
d8
88
d0
60
ENDCHAR
STARTCHAR LtSmlILinvbreve
ENCODING 871
SWIDTH 840 0
DWIDTH 6 0
BBX 6 11 0 -2
BITMAP
30
30
00
70
30
30
30
30
78
30
58
ENDCHAR
STARTCHAR LtSmlOLinvbreve
ENCODING 872
SWIDTH 840 0
DWIDTH 6 0
BBX 6 11 0 -2
BITMAP
00
00
00
70
d8
d8
d8
d8
70
30
58
ENDCHAR
STARTCHAR LtSmlULinvbreve
ENCODING 873
SWIDTH 840 0
DWIDTH 6 0
BBX 6 11 0 -2
BITMAP
00
00
00
d8
d8
d8
d8
d8
78
30
58
ENDCHAR
STARTCHAR LtSmlATrndLinvbreve
ENCODING 874
SWIDTH 840 0
DWIDTH 6 0
BBX 6 11 0 -2
BITMAP
00
00
00
f0
d8
d8
f0
c0
70
60
b0
ENDCHAR
STARTCHAR LtCapELtilde
ENCODING 875
SWIDTH 840 0
DWIDTH 6 0
BBX 6 11 0 -2
BITMAP
00
f8
c8
c0
f0
c0
c0
c8
f8
48
b0
ENDCHAR
STARTCHAR LtCapILtilde
ENCODING 876
SWIDTH 840 0
DWIDTH 6 0
BBX 6 11 0 -2
BITMAP
00
78
30
30
30
30
30
30
78
48
b0
ENDCHAR
STARTCHAR LtCapULtilde
ENCODING 877
SWIDTH 840 0
DWIDTH 6 0
BBX 6 11 0 -2
BITMAP
00
d8
d8
d8
d8
d8
d8
d8
70
48
b0
ENDCHAR
STARTCHAR LtSmlELtilde
ENCODING 878
SWIDTH 840 0
DWIDTH 6 0
BBX 6 11 0 -2
BITMAP
00
00
00
70
d8
f8
c0
c8
78
48
b0
ENDCHAR
STARTCHAR LtSmlILtilde
ENCODING 879
SWIDTH 840 0
DWIDTH 6 0
BBX 6 11 0 -2
BITMAP
30
30
00
70
30
30
30
30
78
48
b0
ENDCHAR
STARTCHAR LtSmlULtilde
ENCODING 880
SWIDTH 840 0
DWIDTH 6 0
BBX 6 11 0 -2
BITMAP
00
00
00
d8
d8
d8
d8
d8
78
48
b0
ENDCHAR
STARTCHAR HbAlefPatah
ENCODING 1273
SWIDTH 840 0
DWIDTH 6 0
BBX 6 11 0 -2
BITMAP
00
00
00
90
d8
70
b0
98
c8
00
f8
ENDCHAR
STARTCHAR HbAlefQamats
ENCODING 1275
SWIDTH 840 0
DWIDTH 6 0
BBX 6 11 0 -2
BITMAP
00
00
00
90
d8
70
b0
98
c8
70
20
ENDCHAR
STARTCHAR GeGan
ENCODING 1306
SWIDTH 840 0
DWIDTH 6 0
BBX 6 11 0 -2
BITMAP
00
00
00
00
c0
e0
20
70
d8
d8
70
ENDCHAR
STARTCHAR GeDon
ENCODING 1307
SWIDTH 840 0
DWIDTH 6 0
BBX 6 11 0 -2
BITMAP
00
00
00
00
70
d8
d8
70
60
f0
18
ENDCHAR
STARTCHAR GeEn
ENCODING 1308
SWIDTH 840 0
DWIDTH 6 0
BBX 6 11 0 -2
BITMAP
00
00
00
00
70
58
18
18
18
98
f0
ENDCHAR
STARTCHAR GeVin
ENCODING 1309
SWIDTH 840 0
DWIDTH 6 0
BBX 6 11 0 -2
BITMAP
00
00
00
00
70
58
18
70
18
98
f0
ENDCHAR
STARTCHAR GeKan
ENCODING 1313
SWIDTH 840 0
DWIDTH 6 0
BBX 6 11 0 -2
BITMAP
00
00
00
00
18
18
18
70
18
98
f0
ENDCHAR
STARTCHAR GeLas
ENCODING 1314
SWIDTH 840 0
DWIDTH 6 0
BBX 6 11 0 -2
BITMAP
00
00
00
00
70
d8
d8
c0
60
f0
18
ENDCHAR
STARTCHAR GeZhar
ENCODING 1319
SWIDTH 840 0
DWIDTH 6 0
BBX 6 11 0 -2
BITMAP
00
00
00
00
b8
a8
e8
48
08
78
30
ENDCHAR
STARTCHAR GeTar
ENCODING 1322
SWIDTH 840 0
DWIDTH 6 0
BBX 6 11 0 -2
BITMAP
00
00
00
20
50
f8
a8
88
88
d8
70
ENDCHAR
STARTCHAR GeUn
ENCODING 1323
SWIDTH 840 0
DWIDTH 6 0
BBX 6 11 0 -2
BITMAP
00
00
00
00
b0
f8
58
18
98
98
f0
ENDCHAR
STARTCHAR GePhar
ENCODING 1324
SWIDTH 840 0
DWIDTH 6 0
BBX 6 11 0 -2
BITMAP
00
00
00
00
70
a8
e8
50
18
58
70
ENDCHAR
STARTCHAR GeKhar
ENCODING 1325
SWIDTH 840 0
DWIDTH 6 0
BBX 6 11 0 -2
BITMAP
00
08
18
18
18
78
58
18
18
98
f0
ENDCHAR
STARTCHAR GeGhan
ENCODING 1326
SWIDTH 840 0
DWIDTH 6 0
BBX 6 11 0 -2
BITMAP
00
00
00
00
50
f8
a8
88
60
f0
18
ENDCHAR
STARTCHAR GeQar
ENCODING 1327
SWIDTH 840 0
DWIDTH 6 0
BBX 6 11 0 -2
BITMAP
00
00
00
00
d8
d8
d8
78
18
98
f0
ENDCHAR
STARTCHAR GeCan
ENCODING 1330
SWIDTH 840 0
DWIDTH 6 0
BBX 6 11 0 -2
BITMAP
00
00
00
00
b0
98
98
b0
98
98
70
ENDCHAR
STARTCHAR GeCil
ENCODING 1332
SWIDTH 840 0
DWIDTH 6 0
BBX 6 11 0 -2
BITMAP
00
50
f8
a8
80
f8
50
50
70
20
20
ENDCHAR
STARTCHAR GeChar
ENCODING 1333
SWIDTH 840 0
DWIDTH 6 0
BBX 6 11 0 -2
BITMAP
00
40
60
30
18
38
58
38
18
98
f0
ENDCHAR
STARTCHAR GeWe
ENCODING 1339
SWIDTH 840 0
DWIDTH 6 0
BBX 6 11 0 -2
BITMAP
00
00
00
00
78
18
30
70
18
98
f0
ENDCHAR
STARTCHAR GeHar
ENCODING 1340
SWIDTH 840 0
DWIDTH 6 0
BBX 6 11 0 -2
BITMAP
00
30
60
60
38
18
30
70
18
98
f0
ENDCHAR
STARTCHAR GeFi
ENCODING 1342
SWIDTH 840 0
DWIDTH 6 0
BBX 6 11 0 -2
BITMAP
00
00
00
50
f8
a8
a8
b8
30
20
60
ENDCHAR
STARTCHAR GeYn
ENCODING 1343
SWIDTH 840 0
DWIDTH 6 0
BBX 6 11 0 -2
BITMAP
00
00
00
00
f0
98
18
70
c0
c8
78
ENDCHAR
STARTCHAR GeElifi
ENCODING 1344
SWIDTH 840 0
DWIDTH 6 0
BBX 6 11 0 -2
BITMAP
00
00
00
00
d8
d8
d8
f0
c0
c8
78
ENDCHAR
STARTCHAR GeUo
ENCODING 1347
SWIDTH 840 0
DWIDTH 6 0
BBX 6 11 0 -2
BITMAP
00
00
00
00
68
f8
d0
c0
c8
c8
78
ENDCHAR
STARTCHAR GeGanTrnd
ENCODING 1350
SWIDTH 840 0
DWIDTH 6 0
BBX 6 11 0 -2
BITMAP
00
00
00
00
70
d8
d8
70
20
38
18
ENDCHAR
STARTCHAR GeUnDrss
ENCODING 1353
SWIDTH 840 0
DWIDTH 6 0
BBX 6 11 0 -2
BITMAP
00
50
50
00
b0
f8
58
18
98
98
f0
ENDCHAR
STARTCHAR GeUnCircum
ENCODING 1355
SWIDTH 840 0
DWIDTH 6 0
BBX 6 11 0 -2
BITMAP
00
60
b0
00
b0
f8
58
18
98
98
f0
ENDCHAR
STARTCHAR GeEnMacron
ENCODING 1357
SWIDTH 840 0
DWIDTH 6 0
BBX 6 11 0 -2
BITMAP
00
00
78
00
70
58
18
18
18
98
f0
ENDCHAR
STARTCHAR GeUnMacron
ENCODING 1360
SWIDTH 840 0
DWIDTH 6 0
BBX 6 11 0 -2
BITMAP
00
00
f0
00
b0
f8
58
18
98
98
f0
ENDCHAR
STARTCHAR AmSmlEh
ENCODING 1407
SWIDTH 840 0
DWIDTH 6 0
BBX 6 11 0 -2
BITMAP
00
c0
c0
c0
f8
c0
c0
c0
70
18
00
ENDCHAR
STARTCHAR AmSmlYi
ENCODING 1421
SWIDTH 840 0
DWIDTH 6 0
BBX 6 11 0 -2
BITMAP
00
00
00
00
70
30
30
30
30
b0
e0
ENDCHAR
STARTCHAR AmSmlSha
ENCODING 1423
SWIDTH 840 0
DWIDTH 6 0
BBX 6 11 0 -2
BITMAP
00
00
00
00
70
98
18
30
60
c0
78
ENDCHAR
STARTCHAR AmSmlCha
ENCODING 1425
SWIDTH 840 0
DWIDTH 6 0
BBX 6 11 0 -2
BITMAP
00
00
00
00
20
70
30
60
c0
c0
78
ENDCHAR
STARTCHAR AmSmlJheh
ENCODING 1427
SWIDTH 840 0
DWIDTH 6 0
BBX 6 11 0 -2
BITMAP
00
70
b8
d8
d8
70
70
60
c0
c0
78
ENDCHAR
STARTCHAR AmSmlCo
ENCODING 1433
SWIDTH 840 0
DWIDTH 6 0
BBX 6 11 0 -2
BITMAP
00
00
00
00
78
d8
d8
78
18
98
f0
ENDCHAR
STARTCHAR AmSmlKeh
ENCODING 1436
SWIDTH 840 0
DWIDTH 6 0
BBX 6 11 0 -2
BITMAP
00
00
00
00
f0
d8
d8
f0
c0
f0
c0
ENDCHAR
STARTCHAR GkCapIotTrndLbreve
ENCODING 1529
SWIDTH 840 0
DWIDTH 6 0
BBX 6 11 0 -2
BITMAP
00
78
30
30
30
30
30
78
00
48
30
ENDCHAR
STARTCHAR GkCapUpsTrndLbreve
ENCODING 1530
SWIDTH 840 0
DWIDTH 6 0
BBX 6 11 0 -2
BITMAP
00
30
30
30
30
70
68
c8
84
48
30
ENDCHAR
STARTCHAR GkSmlIotTrndLbreve
ENCODING 1531
SWIDTH 840 0
DWIDTH 6 0
BBX 6 11 0 -2
BITMAP
00
00
00
e0
30
30
30
30
00
48
30
ENDCHAR
STARTCHAR GkSmlUpsTrndLbreve
ENCODING 1532
SWIDTH 840 0
DWIDTH 6 0
BBX 6 11 0 -2
BITMAP
00
00
00
70
d8
98
d8
48
00
48
30
ENDCHAR
STARTCHAR ThYoYing
ENCODING 1770
SWIDTH 840 0
DWIDTH 6 0
BBX 6 11 0 -2
BITMAP
00
00
00
00
48
e8
a8
b8
98
08
30
ENDCHAR
STARTCHAR ThDoChada
ENCODING 1772
SWIDTH 840 0
DWIDTH 6 0
BBX 6 11 0 -2
BITMAP
00
00
00
00
70
98
d8
58
d8
18
78
ENDCHAR
STARTCHAR ThToPatak
ENCODING 1773
SWIDTH 840 0
DWIDTH 6 0
BBX 6 11 0 -2
BITMAP
00
00
00
00
70
98
d8
58
98
58
f8
ENDCHAR
STARTCHAR ThThoThan
ENCODING 1774
SWIDTH 840 0
DWIDTH 6 0
BBX 6 11 0 -2
BITMAP
00
00
00
00
f8
f8
10
78
18
a0
f8
ENDCHAR
STARTCHAR ThRu
ENCODING 1795
SWIDTH 840 0
DWIDTH 6 0
BBX 6 11 0 -2
BITMAP
00
00
00
00
70
88
c8
c8
e8
08
08
ENDCHAR
STARTCHAR ThLu
ENCODING 1797
SWIDTH 840 0
DWIDTH 6 0
BBX 6 11 0 -2
BITMAP
00
00
00
00
70
c8
e8
68
e8
08
08
ENDCHAR
STARTCHAR ThMaiyamok
ENCODING 1808
SWIDTH 840 0
DWIDTH 6 0
BBX 6 11 0 -2
BITMAP
00
00
00
00
50
f8
98
d8
18
18
30
ENDCHAR
STARTCHAR ThLakkhangyao
ENCODING 1809
SWIDTH 840 0
DWIDTH 6 0
BBX 6 11 0 -2
BITMAP
00
00
00
00
70
d8
18
18
18
18
18
ENDCHAR
STARTCHAR ThSaraU
ENCODING 1831
SWIDTH 840 0
DWIDTH 6 0
BBX 6 11 0 -2
BITMAP
00
00
00
00
00
00
00
00
00
18
08
ENDCHAR
STARTCHAR ThSaraUu
ENCODING 1832
SWIDTH 840 0
DWIDTH 6 0
BBX 6 11 0 -2
BITMAP
00
00
00
00
00
00
00
00
00
68
38
ENDCHAR
STARTCHAR ThPhinthu
ENCODING 1833
SWIDTH 840 0
DWIDTH 6 0
BBX 6 11 0 -2
BITMAP
00
00
00
00
00
00
00
00
00
00
18
ENDCHAR
STARTCHAR CombHbMeteg
ENCODING 2118
SWIDTH 840 0
DWIDTH 6 0
BBX 6 11 0 -2
BITMAP
00
00
00
00
00
00
00
00
20
20
20
ENDCHAR
STARTCHAR CombHbPatah
ENCODING 2119
SWIDTH 840 0
DWIDTH 6 0
BBX 6 11 0 -2
BITMAP
00
00
00
00
00
00
00
00
00
00
f8
ENDCHAR
STARTCHAR CombHbQamats
ENCODING 2120
SWIDTH 840 0
DWIDTH 6 0
BBX 6 11 0 -2
BITMAP
00
00
00
00
00
00
00
00
00
70
20
ENDCHAR
STARTCHAR CombHbSegol
ENCODING 2121
SWIDTH 840 0
DWIDTH 6 0
BBX 6 11 0 -2
BITMAP
00
00
00
00
00
00
00
00
00
88
20
ENDCHAR
STARTCHAR CombHbHatafQamats
ENCODING 2125
SWIDTH 840 0
DWIDTH 6 0
BBX 6 11 0 -2
BITMAP
00
00
00
00
00
00
00
00
08
e0
48
ENDCHAR
STARTCHAR CombLdot
ENCODING 2174
SWIDTH 840 0
DWIDTH 6 0
BBX 6 11 0 -2
BITMAP
00
00
00
00
00
00
00
00
00
00
30
ENDCHAR
STARTCHAR CombLvline
ENCODING 2175
SWIDTH 840 0
DWIDTH 6 0
BBX 6 11 0 -2
BITMAP
00
00
00
00
00
00
00
00
00
30
30
ENDCHAR
STARTCHAR CombLdrss
ENCODING 2176
SWIDTH 840 0
DWIDTH 6 0
BBX 6 11 0 -2
BITMAP
00
00
00
00
00
00
00
00
00
00
d8
ENDCHAR
STARTCHAR CombLvline2
ENCODING 2177
SWIDTH 840 0
DWIDTH 6 0
BBX 6 11 0 -2
BITMAP
00
00
00
00
00
00
00
00
00
50
50
ENDCHAR
STARTCHAR CombLcircum
ENCODING 2180
SWIDTH 840 0
DWIDTH 6 0
BBX 6 11 0 -2
BITMAP
00
00
00
00
00
00
00
00
00
30
58
ENDCHAR
STARTCHAR CombLcaron
ENCODING 2181
SWIDTH 840 0
DWIDTH 6 0
BBX 6 11 0 -2
BITMAP
00
00
00
00
00
00
00
00
00
68
30
ENDCHAR
STARTCHAR CombLbreve
ENCODING 2182
SWIDTH 840 0
DWIDTH 6 0
BBX 6 11 0 -2
BITMAP
00
00
00
00
00
00
00
00
00
68
30
ENDCHAR
STARTCHAR CombLinvbreve
ENCODING 2183
SWIDTH 840 0
DWIDTH 6 0
BBX 6 11 0 -2
BITMAP
00
00
00
00
00
00
00
00
00
30
58
ENDCHAR
STARTCHAR CombLmacron
ENCODING 2184
SWIDTH 840 0
DWIDTH 6 0
BBX 6 11 0 -2
BITMAP
00
00
00
00
00
00
00
00
00
00
f8
ENDCHAR
STARTCHAR CombLtilde
ENCODING 2187
SWIDTH 840 0
DWIDTH 6 0
BBX 6 11 0 -2
BITMAP
00
00
00
00
00
00
00
00
00
48
b0
ENDCHAR
STARTCHAR MArrowU
ENCODING 2475
SWIDTH 840 0
DWIDTH 6 0
BBX 6 11 0 -2
BITMAP
30
78
30
30
30
30
30
30
30
30
00
ENDCHAR
STARTCHAR MArrowD
ENCODING 2476
SWIDTH 840 0
DWIDTH 6 0
BBX 6 11 0 -2
BITMAP
30
30
30
30
30
30
30
30
78
30
00
ENDCHAR
STARTCHAR MArrowUD
ENCODING 2477
SWIDTH 840 0
DWIDTH 6 0
BBX 6 11 0 -2
BITMAP
30
78
30
30
30
30
30
30
78
30
00
ENDCHAR
STARTCHAR MArrowUDBase
ENCODING 2478
SWIDTH 840 0
DWIDTH 6 0
BBX 6 11 0 -2
BITMAP
30
78
30
30
30
30
30
78
30
78
00
ENDCHAR
STARTCHAR MArrowULeftD
ENCODING 2479
SWIDTH 840 0
DWIDTH 6 0
BBX 6 11 0 -2
BITMAP
d8
f8
d8
d8
d8
d8
d8
d8
fc
d8
00
ENDCHAR
STARTCHAR MArrowULeftU
ENCODING 2480
SWIDTH 840 0
DWIDTH 6 0
BBX 6 11 0 -2
BITMAP
d8
fc
d8
d8
d8
d8
d8
d8
d8
d8
00
ENDCHAR
STARTCHAR MArrowDLeftD
ENCODING 2481
SWIDTH 840 0
DWIDTH 6 0
BBX 6 11 0 -2
BITMAP
d8
d8
d8
d8
d8
d8
d8
d8
fc
d8
00
ENDCHAR
STARTCHAR MArrowUu
ENCODING 2482
SWIDTH 840 0
DWIDTH 6 0
BBX 6 11 0 -2
BITMAP
30
78
30
78
30
30
30
30
30
30
00
ENDCHAR
STARTCHAR MArrowDd
ENCODING 2483
SWIDTH 840 0
DWIDTH 6 0
BBX 6 11 0 -2
BITMAP
30
30
30
30
30
30
78
30
78
30
00
ENDCHAR
STARTCHAR MArrowBarU
ENCODING 2484
SWIDTH 840 0
DWIDTH 6 0
BBX 6 11 0 -2
BITMAP
30
78
30
30
30
30
30
30
30
78
00
ENDCHAR
STARTCHAR MArrowBarD
ENCODING 2485
SWIDTH 840 0
DWIDTH 6 0
BBX 6 11 0 -2
BITMAP
78
30
30
30
30
30
30
30
78
30
00
ENDCHAR
STARTCHAR MArrowLU
ENCODING 2488
SWIDTH 840 0
DWIDTH 6 0
BBX 6 11 0 -2
BITMAP
80
e0
f0
e0
e0
30
30
18
18
08
00
ENDCHAR
STARTCHAR MArrowRU
ENCODING 2489
SWIDTH 840 0
DWIDTH 6 0
BBX 6 11 0 -2
BITMAP
08
38
78
38
38
60
60
c0
c0
80
00
ENDCHAR
STARTCHAR MArrowLD
ENCODING 2490
SWIDTH 840 0
DWIDTH 6 0
BBX 6 11 0 -2
BITMAP
08
18
18
30
30
e0
e0
f0
e0
80
00
ENDCHAR
STARTCHAR MArrowRD
ENCODING 2491
SWIDTH 840 0
DWIDTH 6 0
BBX 6 11 0 -2
BITMAP
80
c0
c0
60
60
38
38
78
38
08
00
ENDCHAR
STARTCHAR MArrow2U
ENCODING 2500
SWIDTH 840 0
DWIDTH 6 0
BBX 6 11 0 -2
BITMAP
20
70
f8
50
50
50
50
50
50
50
00
ENDCHAR
STARTCHAR MArrow2D
ENCODING 2501
SWIDTH 840 0
DWIDTH 6 0
BBX 6 11 0 -2
BITMAP
50
50
50
50
50
50
50
f8
70
20
00
ENDCHAR
STARTCHAR MArrow2UD
ENCODING 2502
SWIDTH 840 0
DWIDTH 6 0
BBX 6 11 0 -2
BITMAP
20
70
f8
50
50
50
50
f8
70
20
00
ENDCHAR
STARTCHAR MHarpoonUl
ENCODING 2518
SWIDTH 840 0
DWIDTH 6 0
BBX 6 11 0 -2
BITMAP
30
70
30
30
30
30
30
30
30
30
00
ENDCHAR
STARTCHAR MHarpoonUr
ENCODING 2519
SWIDTH 840 0
DWIDTH 6 0
BBX 6 11 0 -2
BITMAP
30
38
30
30
30
30
30
30
30
30
00
ENDCHAR
STARTCHAR MHarpoonDl
ENCODING 2520
SWIDTH 840 0
DWIDTH 6 0
BBX 6 11 0 -2
BITMAP
30
30
30
30
30
30
30
30
70
30
00
ENDCHAR
STARTCHAR MHarpoonDr
ENCODING 2521
SWIDTH 840 0
DWIDTH 6 0
BBX 6 11 0 -2
BITMAP
30
30
30
30
30
30
30
30
38
30
00
ENDCHAR
STARTCHAR PCurlyBrackLTRB
ENCODING 2649
SWIDTH 840 0
DWIDTH 6 0
BBX 6 11 0 -2
BITMAP
18
30
30
30
30
30
30
30
30
30
60
ENDCHAR
STARTCHAR PCurlyBrackLBRT
ENCODING 2650
SWIDTH 840 0
DWIDTH 6 0
BBX 6 11 0 -2
BITMAP
60
30
30
30
30
30
30
30
30
30
18
ENDCHAR
STARTCHAR MSumT
ENCODING 2651
SWIDTH 840 0
DWIDTH 6 0
BBX 6 11 0 -2
BITMAP
f8
c8
c0
60
60
60
30
30
30
18
18
ENDCHAR
STARTCHAR MRootB
ENCODING 2653
SWIDTH 840 0
DWIDTH 6 0
BBX 6 11 0 -2
BITMAP
30
30
30
30
30
b0
b0
70
70
30
30
ENDCHAR
ENDFONT
